<mxfile host="app.diagrams.net" agent="Mozilla/5.0 (X11; Linux x86_64; rv:133.0) Gecko/20100101 Firefox/133.0" version="26.0.1">
  <diagram name="Page-1" id="ljUszbjchGsLxsh-cLAg">
    <mxGraphModel dx="989" dy="524" grid="1" gridSize="10" guides="1" tooltips="1" connect="1" arrows="1" fold="1" page="1" pageScale="1" pageWidth="827" pageHeight="1169" math="0" shadow="0">
      <root>
        <mxCell id="0" />
        <mxCell id="1" parent="0" />
        <mxCell id="97Sr_ZFzPPw2p4PArQE4-1" value="" style="rounded=0;whiteSpace=wrap;html=1;" vertex="1" parent="1">
          <mxGeometry x="229" y="230" width="211" height="310" as="geometry" />
        </mxCell>
        <mxCell id="97Sr_ZFzPPw2p4PArQE4-2" value="lcms/" style="text;align=center;fontStyle=1;verticalAlign=middle;spacingLeft=3;spacingRight=3;strokeColor=none;rotatable=0;points=[[0,0.5],[1,0.5]];portConstraint=eastwest;html=1;" vertex="1" parent="1">
          <mxGeometry x="229" y="240" width="80" height="26" as="geometry" />
        </mxCell>
        <mxCell id="97Sr_ZFzPPw2p4PArQE4-3" value="LearningUnit Module" style="shape=module;align=left;spacingLeft=20;align=center;verticalAlign=top;whiteSpace=wrap;html=1;fillColor=#6B6B6B;fontColor=#FFFFFF;" vertex="1" parent="1">
          <mxGeometry x="290" y="270" width="100" height="50" as="geometry" />
        </mxCell>
        <mxCell id="97Sr_ZFzPPw2p4PArQE4-4" value="Competency Module" style="shape=module;align=left;spacingLeft=20;align=center;verticalAlign=top;whiteSpace=wrap;html=1;fillColor=#6B6B6B;fontColor=#FFFFFF;" vertex="1" parent="1">
          <mxGeometry x="290" y="330" width="100" height="50" as="geometry" />
        </mxCell>
        <mxCell id="97Sr_ZFzPPw2p4PArQE4-16" style="rounded=0;orthogonalLoop=1;jettySize=auto;html=1;startArrow=classic;startFill=1;" edge="1" parent="1" source="97Sr_ZFzPPw2p4PArQE4-5" target="97Sr_ZFzPPw2p4PArQE4-8">
          <mxGeometry relative="1" as="geometry" />
        </mxCell>
        <mxCell id="97Sr_ZFzPPw2p4PArQE4-5" value="LearningMaterial Module" style="shape=module;align=left;spacingLeft=20;align=center;verticalAlign=top;whiteSpace=wrap;html=1;fillColor=#6B6B6B;fontColor=#FFFFFF;" vertex="1" parent="1">
          <mxGeometry x="275" y="390" width="130" height="50" as="geometry" />
        </mxCell>
        <mxCell id="97Sr_ZFzPPw2p4PArQE4-9" style="edgeStyle=orthogonalEdgeStyle;rounded=0;orthogonalLoop=1;jettySize=auto;html=1;dashed=1;" edge="1" parent="1" source="97Sr_ZFzPPw2p4PArQE4-6" target="97Sr_ZFzPPw2p4PArQE4-5">
          <mxGeometry relative="1" as="geometry" />
        </mxCell>
        <mxCell id="97Sr_ZFzPPw2p4PArQE4-6" value="Material Module" style="shape=module;align=left;spacingLeft=20;align=center;verticalAlign=top;whiteSpace=wrap;html=1;fillColor=#6B6B6B;fontColor=#FFFFFF;" vertex="1" parent="1">
          <mxGeometry x="275" y="480" width="130" height="50" as="geometry" />
        </mxCell>
        <mxCell id="97Sr_ZFzPPw2p4PArQE4-10" style="rounded=0;orthogonalLoop=1;jettySize=auto;html=1;dashed=1;" edge="1" parent="1" source="97Sr_ZFzPPw2p4PArQE4-7" target="97Sr_ZFzPPw2p4PArQE4-3">
          <mxGeometry relative="1" as="geometry" />
        </mxCell>
        <mxCell id="97Sr_ZFzPPw2p4PArQE4-11" style="rounded=0;orthogonalLoop=1;jettySize=auto;html=1;dashed=1;" edge="1" parent="1" source="97Sr_ZFzPPw2p4PArQE4-7" target="97Sr_ZFzPPw2p4PArQE4-4">
          <mxGeometry relative="1" as="geometry" />
        </mxCell>
        <mxCell id="97Sr_ZFzPPw2p4PArQE4-12" style="rounded=0;orthogonalLoop=1;jettySize=auto;html=1;dashed=1;" edge="1" parent="1" source="97Sr_ZFzPPw2p4PArQE4-7" target="97Sr_ZFzPPw2p4PArQE4-5">
          <mxGeometry relative="1" as="geometry" />
        </mxCell>
        <mxCell id="97Sr_ZFzPPw2p4PArQE4-13" style="rounded=0;orthogonalLoop=1;jettySize=auto;html=1;dashed=1;" edge="1" parent="1" source="97Sr_ZFzPPw2p4PArQE4-7" target="97Sr_ZFzPPw2p4PArQE4-6">
          <mxGeometry relative="1" as="geometry" />
        </mxCell>
        <mxCell id="97Sr_ZFzPPw2p4PArQE4-7" value="shared/" style="html=1;whiteSpace=wrap;fillColor=#6B6B6B;fontColor=#FFFFFF;" vertex="1" parent="1">
          <mxGeometry x="40" y="370" width="110" height="50" as="geometry" />
        </mxCell>
        <mxCell id="97Sr_ZFzPPw2p4PArQE4-14" style="rounded=0;orthogonalLoop=1;jettySize=auto;html=1;startArrow=classic;startFill=1;" edge="1" parent="1" source="97Sr_ZFzPPw2p4PArQE4-8" target="97Sr_ZFzPPw2p4PArQE4-3">
          <mxGeometry relative="1" as="geometry" />
        </mxCell>
        <mxCell id="97Sr_ZFzPPw2p4PArQE4-15" style="rounded=0;orthogonalLoop=1;jettySize=auto;html=1;startArrow=classic;startFill=1;" edge="1" parent="1" source="97Sr_ZFzPPw2p4PArQE4-8" target="97Sr_ZFzPPw2p4PArQE4-4">
          <mxGeometry relative="1" as="geometry" />
        </mxCell>
        <mxCell id="97Sr_ZFzPPw2p4PArQE4-17" style="rounded=0;orthogonalLoop=1;jettySize=auto;html=1;startArrow=classic;startFill=1;" edge="1" parent="1" source="97Sr_ZFzPPw2p4PArQE4-8" target="97Sr_ZFzPPw2p4PArQE4-6">
          <mxGeometry relative="1" as="geometry" />
        </mxCell>
        <mxCell id="97Sr_ZFzPPw2p4PArQE4-8" value="StudyCourse Frontend" style="html=1;whiteSpace=wrap;fillColor=#6B6B6B;fontColor=#FFFFFF;" vertex="1" parent="1">
          <mxGeometry x="520" y="370" width="110" height="50" as="geometry" />
        </mxCell>
      </root>
    </mxGraphModel>
  </diagram>
</mxfile>
